REM DIRINDEX 1\6,1\2\7,1\2\8,1\2\9,1\3\10,1\3\11,1\4\12,1\4\13,1\4\14,1\5\15,1\5\16,1\5\17
REM DIRNAME folder01,folder02,folder03,folder04,folder05,folder06,folder07,folder08,folder09,folder10,folder11,folder12,folder13,folder14,folder15,folder16,folder17
TITLE ""
FILE "3Q_t2_0247-0262.mp3" MP3
  TRACK 01 AUDIO
    TITLE "7:cjc041_4154"
    INDEX 01 00:00:00
  TRACK 02 AUDIO
    TITLE "0:"
    INDEX 01 00:01:26
  TRACK 03 AUDIO
    TITLE "8:cjc041_4155"
    INDEX 01 00:02:08
  TRACK 04 AUDIO
    TITLE "0:"
    INDEX 01 00:04:54
  TRACK 05 AUDIO
    TITLE "9:cjc041_4156"
    INDEX 01 00:05:32
  TRACK 06 AUDIO
    TITLE "0:"
    INDEX 01 00:06:63
  TRACK 07 AUDIO
    TITLE "7:cjc041_4157"
    INDEX 01 00:08:56
  TRACK 08 AUDIO
    TITLE "0:"
    INDEX 01 00:09:67
  TRACK 09 AUDIO
    TITLE "8:cjc041_4158"
    INDEX 01 00:10:49
  TRACK 10 AUDIO
    TITLE "0:"
    INDEX 01 00:11:52
  TRACK 11 AUDIO
    TITLE "9:cjc041_4159"
    INDEX 01 00:12:24
  TRACK 12 AUDIO
    TITLE "0:"
    INDEX 01 00:13:39
  TRACK 13 AUDIO
    TITLE "7:cjc041_4160"
    INDEX 01 00:15:19
  TRACK 14 AUDIO
    TITLE "0:"
    INDEX 01 00:16:36
  TRACK 15 AUDIO
    TITLE "8:cjc041_4161"
    INDEX 01 00:17:12
  TRACK 16 AUDIO
    TITLE "0:"
    INDEX 01 00:18:27
  TRACK 17 AUDIO
    TITLE "9:cjc041_4162"
    INDEX 01 00:19:07
  TRACK 18 AUDIO
    TITLE "0:"
    INDEX 01 00:20:28
  TRACK 19 AUDIO
    TITLE "7:cjc041_4163"
    INDEX 01 00:22:07
  TRACK 20 AUDIO
    TITLE "0:"
    INDEX 01 00:23:18
  TRACK 21 AUDIO
    TITLE "8:cjc041_4164"
    INDEX 01 00:23:73
  TRACK 22 AUDIO
    TITLE "0:"
    INDEX 01 00:25:13
  TRACK 23 AUDIO
    TITLE "9:cjc041_4165"
    INDEX 01 00:25:58
  TRACK 24 AUDIO
    TITLE "0:"
    INDEX 01 00:26:73
  TRACK 25 AUDIO
    TITLE "7:cjc041_4166"
    INDEX 01 00:28:60
  TRACK 26 AUDIO
    TITLE "0:"
    INDEX 01 00:29:74
  TRACK 27 AUDIO
    TITLE "8:cjc041_4167"
    INDEX 01 00:30:46
  TRACK 28 AUDIO
    TITLE "0:"
    INDEX 01 00:31:65
  TRACK 29 AUDIO
    TITLE "9:cjc041_4168"
    INDEX 01 00:32:43
  TRACK 30 AUDIO
    TITLE "0:"
    INDEX 01 00:33:60
  TRACK 31 AUDIO
    TITLE "7:cjc041_4169"
    INDEX 01 00:35:41
  TRACK 32 AUDIO
    TITLE "0:"
    INDEX 01 00:36:54
  TRACK 33 AUDIO
    TITLE "8:cjc041_4170"
    INDEX 01 00:37:26
  TRACK 34 AUDIO
    TITLE "0:"
    INDEX 01 00:39:03
  TRACK 35 AUDIO
    TITLE "9:cjc041_4171"
    INDEX 01 00:39:52
  TRACK 36 AUDIO
    TITLE "0:"
    INDEX 01 00:40:68
  TRACK 37 AUDIO
    TITLE "7:cjc041_4172"
    INDEX 01 00:42:45
  TRACK 38 AUDIO
    TITLE "0:"
    INDEX 01 00:43:60
  TRACK 39 AUDIO
    TITLE "8:cjc041_4173"
    INDEX 01 00:44:38
  TRACK 40 AUDIO
    TITLE "0:"
    INDEX 01 00:45:43
  TRACK 41 AUDIO
    TITLE "9:cjc041_4174"
    INDEX 01 00:46:21
  TRACK 42 AUDIO
    TITLE "0:"
    INDEX 01 00:47:36
  TRACK 43 AUDIO
    TITLE "7:cjc041_4175"
    INDEX 01 00:49:18
  TRACK 44 AUDIO
    TITLE "0:"
    INDEX 01 00:50:37
  TRACK 45 AUDIO
    TITLE "8:cjc041_4176"
    INDEX 01 00:51:20
  TRACK 46 AUDIO
    TITLE "0:"
    INDEX 01 00:54:40
  TRACK 47 AUDIO
    TITLE "9:cjc041_4177"
    INDEX 01 00:55:18
  TRACK 48 AUDIO
    TITLE "0:"
    INDEX 01 00:56:37
  TRACK 49 AUDIO
    TITLE "7:cjc041_4178"
    INDEX 01 00:58:11
  TRACK 50 AUDIO
    TITLE "0:"
    INDEX 01 00:59:30
  TRACK 51 AUDIO
    TITLE "8:cjc041_4179"
    INDEX 01 01:00:10
  TRACK 52 AUDIO
    TITLE "0:"
    INDEX 01 01:01:44
  TRACK 53 AUDIO
    TITLE "9:cjc041_4180"
    INDEX 01 01:02:16
  TRACK 54 AUDIO
    TITLE "0:"
    INDEX 01 01:03:39
  TRACK 55 AUDIO
    TITLE "7:cjc041_4181"
    INDEX 01 01:05:19
  TRACK 56 AUDIO
    TITLE "0:"
    INDEX 01 01:06:26
  TRACK 57 AUDIO
    TITLE "8:cjc041_4182"
    INDEX 01 01:07:02
  TRACK 58 AUDIO
    TITLE "0:"
    INDEX 01 01:10:59
  TRACK 59 AUDIO
    TITLE "9:cjc041_4183"
    INDEX 01 01:11:39
  TRACK 60 AUDIO
    TITLE "0:"
    INDEX 01 01:12:52
  TRACK 61 AUDIO
    TITLE "7:cjc041_4184"
    INDEX 01 01:14:37
  TRACK 62 AUDIO
    TITLE "0:"
    INDEX 01 01:15:54
  TRACK 63 AUDIO
    TITLE "8:cjc041_4185"
    INDEX 01 01:16:38
  TRACK 64 AUDIO
    TITLE "0:"
    INDEX 01 01:17:55
  TRACK 65 AUDIO
    TITLE "9:cjc041_4186"
    INDEX 01 01:18:35
  TRACK 66 AUDIO
    TITLE "0:"
    INDEX 01 01:19:54
  TRACK 67 AUDIO
    TITLE "7:cjc041_4187"
    INDEX 01 01:21:33
  TRACK 68 AUDIO
    TITLE "0:"
    INDEX 01 01:22:48
  TRACK 69 AUDIO
    TITLE "8:cjc041_4188"
    INDEX 01 01:23:26
  TRACK 70 AUDIO
    TITLE "0:"
    INDEX 01 01:24:34
  TRACK 71 AUDIO
    TITLE "9:cjc041_4189"
    INDEX 01 01:25:11
  TRACK 72 AUDIO
    TITLE "0:"
    INDEX 01 01:26:25
  TRACK 73 AUDIO
    TITLE "7:cjc041_4190"
    INDEX 01 01:28:10
  TRACK 74 AUDIO
    TITLE "0:"
    INDEX 01 01:29:29
  TRACK 75 AUDIO
    TITLE "8:cjc041_4191"
    INDEX 01 01:30:13
  TRACK 76 AUDIO
    TITLE "0:"
    INDEX 01 01:31:69
  TRACK 77 AUDIO
    TITLE "9:cjc041_4192"
    INDEX 01 01:32:53
  TRACK 78 AUDIO
    TITLE "0:"
    INDEX 01 01:33:72
  TRACK 79 AUDIO
    TITLE "7:cjc041_4193"
    INDEX 01 01:35:53
  TRACK 80 AUDIO
    TITLE "0:"
    INDEX 01 01:36:72
  TRACK 81 AUDIO
    TITLE "8:cjc041_4194"
    INDEX 01 01:37:52
  TRACK 82 AUDIO
    TITLE "0:"
    INDEX 01 01:39:57
  TRACK 83 AUDIO
    TITLE "9:cjc041_4195"
    INDEX 01 01:40:36
  TRACK 84 AUDIO
    TITLE "0:"
    INDEX 01 01:41:57
  TRACK 85 AUDIO
    TITLE "7:cjc041_4196"
    INDEX 01 01:43:41
  TRACK 86 AUDIO
    TITLE "0:"
    INDEX 01 01:44:70
  TRACK 87 AUDIO
    TITLE "8:cjc041_4197"
    INDEX 01 01:45:51
  TRACK 88 AUDIO
    TITLE "0:"
    INDEX 01 01:48:61
  TRACK 89 AUDIO
    TITLE "9:cjc041_4198"
    INDEX 01 01:49:43
  TRACK 90 AUDIO
    TITLE "0:"
    INDEX 01 01:50:72
  TRACK 91 AUDIO
    TITLE "7:cjc041_4199"
    INDEX 01 01:52:55
  TRACK 92 AUDIO
    TITLE "0:"
    INDEX 01 01:54:03
  TRACK 93 AUDIO
    TITLE "8:cjc041_4200"
    INDEX 01 01:54:56
  TRACK 94 AUDIO
    TITLE "0:"
    INDEX 01 01:55:71
  TRACK 95 AUDIO
    TITLE "9:cjc041_4201"
    INDEX 01 01:56:53
  TRACK 96 AUDIO
    TITLE "0:"
    INDEX 01 01:58:07
